<svg width="150" height="176" viewBox="0 0 150 176" fill="none" xmlns="http://www.w3.org/2000/svg">
<g opacity="0.8" clip-path="url(#clip0_22_6369)">
<path d="M108.338 71.8293C116.198 105.689 103.994 138.18 80.2427 145.149C55.3761 152.446 26.9114 129.368 17.5999 92.7304C8.12869 55.464 22.6745 21.0443 49.0585 16.6325C74.225 12.424 100.355 37.4351 108.338 71.8293Z" fill="#3658C1"/>
<path d="M70.8052 146.993C64.142 146.993 57.3132 145.07 50.6559 141.274C35.1131 132.41 22.5784 114.309 17.1254 92.8509C11.5298 70.8346 14.11 48.6164 24.0268 33.4172C30.3018 23.8004 38.9295 17.8293 48.9776 16.1491C61.2349 14.0987 74.1971 18.8047 85.477 29.3974C96.6216 39.8632 104.91 54.8928 108.815 71.7179C116.805 106.135 104.315 138.596 80.3804 145.619C77.2542 146.537 74.0495 146.993 70.8052 146.993ZM54.6492 16.6603C52.8008 16.6603 50.9628 16.8113 49.1394 17.1161C39.3682 18.7498 30.9689 24.5719 24.8473 33.9534C15.0771 48.9272 12.5454 70.8547 18.0749 92.6102C23.4641 113.815 35.8253 131.689 51.1412 140.422C60.8041 145.932 70.8194 147.404 80.1049 144.679C91.4103 141.361 100.496 132.028 105.687 118.399C110.879 104.766 111.651 88.2669 107.861 71.9399C103.998 55.3016 95.8109 40.447 84.8065 30.1126C75.4411 21.3172 64.9145 16.6608 54.6497 16.6608L54.6492 16.6603Z" fill="#111111"/>
<path d="M90.43 101.877C87.7072 93.6666 74.8465 87.1828 65.5184 88.2965C55.6501 89.4743 45.9931 98.3294 46.8754 106.441L48.4914 121.941C56.7966 133.976 68.2765 142.087 76.0234 141.276C83.7698 140.466 91.624 130.333 94.9105 117.085L90.4305 101.877" fill="white"/>
<path d="M74.9153 141.822C67.0243 141.822 56.1987 133.973 48.0876 122.219C48.0411 122.151 48.0121 122.073 48.0038 121.992L46.3883 106.492C45.4996 98.3196 54.9464 89.0645 65.4607 87.8092C75.374 86.6275 88.2166 93.647 90.8953 101.723C90.8972 101.728 90.8987 101.733 90.9002 101.738L95.3807 116.946C95.4057 117.03 95.4076 117.119 95.3866 117.203C92.0064 130.828 84.065 140.927 76.075 141.763C75.697 141.803 75.3088 141.822 74.9162 141.822H74.9153ZM48.9655 121.765C57.1496 133.576 68.5011 141.569 75.972 140.788C83.4155 140.01 91.1531 130.055 94.4028 117.096L89.9625 102.024C87.4044 94.3273 75.1089 87.6475 65.5768 88.7832C55.7345 89.9576 46.5427 98.8426 47.3632 106.389L48.966 121.766L48.9655 121.765Z" fill="#111111"/>
<path d="M96.8143 70.2764C96.1869 64.7587 94.6439 59.3631 92.4705 54.0518C85.0104 37.6757 65.9987 31.4204 54.4566 32.6281C42.8978 33.8373 27.0697 43.7571 26.3178 61.0306C26.2889 68.2373 27.729 75.499 29.8342 82.4847C30.3827 82.5577 30.9341 82.494 31.412 82.22C34.4754 90.5227 39.353 100.021 46.8759 106.441C58.7033 117.506 82.1572 116.464 90.4305 101.877C95.1438 94.1807 96.1295 84.0772 95.8408 75.4936C96.3756 75.6475 96.9471 75.6181 97.4681 75.424C97.2922 73.6952 97.075 71.9762 96.8143 70.2764Z" fill="white"/>
<path d="M67.1771 114.389C59.3283 114.389 51.7348 111.659 46.5402 106.799C40.2667 101.446 35.0784 93.392 31.1307 82.8719C30.7155 83.0003 30.2548 83.0346 29.769 82.9699C29.5779 82.9444 29.42 82.8096 29.3647 82.6253C26.958 74.6412 25.8007 67.5766 25.8267 61.0276C26.608 43.0762 43.0086 33.332 54.4047 32.1394C65.7537 30.9537 85.1967 36.9032 92.9161 53.8479C95.2674 59.5939 96.6991 64.9405 97.2996 70.2107C97.5554 71.8836 97.7765 73.6207 97.9549 75.3735C97.9775 75.5955 97.8471 75.8048 97.6383 75.8827C97.2241 76.0371 96.7839 76.1004 96.3477 76.0749C96.6379 86.9328 94.788 95.6972 90.8472 102.133C87.2857 108.413 80.501 112.746 72.2404 114.006C70.5553 114.263 68.8603 114.389 67.1771 114.389ZM31.4115 81.7298C31.4679 81.7298 31.5243 81.7396 31.5792 81.7592C31.7145 81.8087 31.8213 81.9151 31.8718 82.0504C35.7822 92.6485 40.9372 100.729 47.194 106.068C53.3043 111.785 62.8368 114.45 72.0934 113.037C80.0545 111.822 86.5833 107.666 90.0036 101.635C93.9229 95.234 95.7188 86.449 95.3507 75.5097C95.3453 75.3529 95.4154 75.2034 95.5389 75.1068C95.6629 75.0103 95.8262 74.9789 95.9762 75.0225C96.284 75.1108 96.6158 75.1245 96.9378 75.0642C96.7687 73.4633 96.5643 71.8797 96.3305 70.3504C96.3296 70.344 96.3286 70.3381 96.3281 70.3317C95.7379 65.1493 94.3283 59.8851 92.0172 54.2375C84.507 37.7531 65.5591 31.9615 54.5081 33.1153C43.4605 34.2706 27.5628 43.7021 26.808 61.0517C26.7825 67.3952 27.8947 74.2638 30.2082 82.0224C30.5695 82.0273 30.8934 81.9523 31.1689 81.795C31.2439 81.7519 31.3282 81.7303 31.4125 81.7303L31.4115 81.7298Z" fill="#111111"/>
<path d="M58.3832 52.4127C47.12 53.591 32.2408 57.2662 26.3173 61.0301C26.2727 62.0614 26.281 63.1172 26.3482 64.2004C26.609 68.4363 27.3574 72.8977 28.4632 77.4262L32.0163 77.9556L32.0134 77.9198C35.9199 81.1289 41.2984 82.7777 47.2121 82.1592C56.1623 81.223 57.9911 74.802 62.7289 74.3064C67.4668 73.8109 71.7188 79.5957 80.6686 78.6595C86.5784 78.0414 91.0966 75.3568 93.6003 71.4772L93.6072 71.513L96.8133 70.2759C96.1129 65.7047 95.0963 61.2717 93.6993 57.1549C93.3351 56.0825 92.9234 55.0482 92.4695 54.0513C85.205 51.7211 69.5117 51.2481 58.3827 52.4122" fill="#3658C1"/>
<path d="M44.756 82.7787C39.9035 82.7787 35.4014 81.2715 31.862 78.4286L28.3908 77.9115C28.1937 77.8821 28.0339 77.7365 27.9869 77.5429C26.8262 72.7894 26.1106 68.3103 25.8591 64.2308C25.7925 63.1524 25.7817 62.0687 25.8278 61.009C25.8346 60.8487 25.9194 60.7022 26.0547 60.6164C32.2395 56.6868 47.6249 53.0455 58.3328 51.9255C68.8922 50.8202 85.0026 51.1412 92.6201 53.5851C92.7515 53.6273 92.8588 53.7228 92.9162 53.8488C93.3813 54.8698 93.8014 55.9295 94.1646 56.9981C95.5091 60.96 96.5639 65.4027 97.2991 70.2023C97.3339 70.4298 97.206 70.6508 96.9913 70.7337L93.8911 71.9296C91.1874 75.9803 86.5201 78.5403 80.7211 79.1472C75.4034 79.7045 71.6503 77.9242 68.6349 76.494C66.491 75.4769 64.6362 74.5995 62.7815 74.7941C60.9365 74.9872 59.5112 76.2013 57.8603 77.6066C55.5149 79.604 52.5961 82.0891 47.2647 82.6469C46.4206 82.7351 45.5834 82.7787 44.757 82.7787H44.756ZM32.0375 77.4404C32.1404 77.4404 32.2414 77.4723 32.3247 77.5409C36.2818 80.7916 41.5524 82.2577 47.1617 81.6715C52.1917 81.1455 54.8655 78.8688 57.2241 76.8601C58.999 75.3485 60.5322 74.0432 62.6785 73.8187C64.8127 73.5957 66.7772 74.5284 69.0545 75.6078C72.1101 77.0567 75.5735 78.7011 80.6187 78.1717C86.2055 77.5875 90.6703 75.1156 93.1897 71.2111C93.2818 71.0675 93.4509 70.9871 93.6092 70.9866L96.2693 69.9602C95.5458 65.366 94.5258 61.1129 93.2362 57.3123C92.9073 56.3437 92.5304 55.3825 92.1138 54.4527C84.5355 52.1073 68.7996 51.8152 58.4353 52.8999C47.9617 53.9954 33.0002 57.5064 26.7973 61.308C26.7654 62.2515 26.7787 63.2132 26.838 64.17C27.0801 68.1005 27.7609 72.4115 28.8623 76.99L31.9434 77.4493C31.9748 77.4434 32.0061 77.4404 32.0375 77.4404Z" fill="#111111"/>
<path d="M37.1493 62.6559C35.4465 62.8338 34.0608 63.6063 33.0133 64.7734C32.6692 68.0952 36.2616 73.1075 41.7714 74.1966C42.9326 74.426 44.0859 74.4632 45.1868 74.3481C49.3095 73.9167 52.6925 71.3468 52.9607 68.7255C50.826 68.6667 47.7072 66.6262 43.6766 64.368C41.1553 62.9544 38.9707 62.4652 37.1493 62.6559Z" fill="white"/>
<path d="M43.9756 74.9015C43.2017 74.9015 42.4326 74.8265 41.6763 74.677C36.0577 73.5663 32.1443 68.4138 32.5256 64.7224C32.5364 64.6195 32.5791 64.5224 32.6487 64.4455C33.8231 63.1373 35.3612 62.3496 37.0978 62.1682C39.1373 61.954 41.4357 62.5501 43.9158 63.9402C44.6305 64.3406 45.3167 64.7347 45.974 65.1116C48.9718 66.8321 51.3397 68.1908 52.9729 68.2359C53.1092 68.2393 53.2376 68.3001 53.3278 68.402C53.418 68.5045 53.4611 68.6397 53.4474 68.7755C53.1464 71.7233 49.5399 74.3853 45.2373 74.8353C44.8162 74.8794 44.3952 74.9015 43.9756 74.9015ZM33.4878 64.9812C33.2878 68.1873 36.9081 72.735 41.867 73.7153C42.936 73.9266 44.0374 73.9756 45.1358 73.8599C48.6792 73.4893 51.7833 71.4371 52.3837 69.1627C50.5834 68.8858 48.3022 67.5771 45.4873 65.9615C44.8324 65.5861 44.1496 65.194 43.437 64.795C41.1381 63.5064 39.0373 62.95 37.2002 63.1427C35.741 63.2951 34.4931 63.9137 33.4878 64.9812Z" fill="#111111"/>
<path d="M82.7356 57.8872C80.9132 58.0779 79.008 58.995 77.1415 60.8674C74.153 63.8603 71.9502 66.4571 69.9254 66.9512C71.2052 69.4103 75.4509 71.1822 79.5736 70.7508C80.6745 70.6357 81.7666 70.3636 82.791 69.9053C87.6484 67.7315 89.1454 62.1869 87.5278 59.0705C86.0691 58.1656 84.4389 57.7088 82.7356 57.8872Z" fill="white"/>
<path d="M78.3032 71.3063C74.4736 71.3063 70.7621 69.6197 69.4907 67.1767C69.4206 67.0434 69.4171 66.8851 69.4789 66.7479C69.5412 66.6106 69.6632 66.5096 69.8093 66.4739C71.3415 66.0999 73.0815 64.3157 75.2843 62.0566C75.7651 61.563 76.268 61.0474 76.7945 60.52C78.6448 58.6642 80.6265 57.6138 82.6846 57.3986C84.4095 57.2183 86.1731 57.6521 87.7872 58.653C87.8617 58.6995 87.9229 58.7652 87.9636 58.8436C88.8023 60.4597 88.867 62.6732 88.1371 64.7657C87.2617 67.2748 85.4339 69.2589 82.992 70.3515C81.9592 70.8132 80.8265 71.1112 79.6251 71.2372C79.1859 71.2833 78.7433 71.3053 78.3037 71.3053L78.3032 71.3063ZM70.6675 67.2189C72.1733 69.2937 75.973 70.6338 79.5227 70.2628C80.6206 70.1481 81.6534 69.877 82.5915 69.4574C84.785 68.4761 86.4255 66.6954 87.2112 64.4436C87.8357 62.6541 87.8122 60.7866 87.1534 59.4151C85.7413 58.5691 84.2737 58.2192 82.7871 58.3741C80.9593 58.5652 79.1766 59.52 77.489 61.2125C76.965 61.7375 76.4651 62.2497 75.9867 62.7408C73.9408 64.8392 72.2757 66.5474 70.668 67.2184L70.6675 67.2189Z" fill="#111111"/>
<path d="M121.813 123.138C127.475 115.589 130.736 107.827 129.461 101.565C116.796 39.3854 84.405 -3.06983 48.1233 0.725432C11.8411 4.52119 -2.72432 51.8882 9.30946 114.134C10.526 120.427 16.7172 127.233 25.1361 133.332C20.6815 130.84 4.3638 141.82 0.490112 144.846C42.8934 187.432 119.005 186.282 149.51 128.731C144.825 126.693 127.015 124.161 121.813 123.138ZM26.3482 64.2009C26.2815 63.1177 26.2727 62.0614 26.3173 61.0306C27.0692 43.7571 42.8968 33.8373 54.4561 32.6281C65.9983 31.4209 85.0099 37.6762 92.47 54.0518C92.9244 55.0488 93.3357 56.083 93.6998 57.1554C95.0968 61.2722 96.1134 65.7052 96.8138 70.2764C97.0741 71.9762 97.2912 73.6952 97.4672 75.424C98.968 90.1546 97.527 105.592 95.1644 116.015C95.083 116.374 94.9983 116.731 94.91 117.085C91.6235 130.333 83.7693 140.465 76.0229 141.276C68.276 142.086 56.7966 133.976 48.4909 121.941C48.2689 121.619 48.0483 121.294 47.8312 120.967C41.5087 111.449 34.1211 96.928 29.8337 82.4847C29.3323 80.7951 28.8735 79.1065 28.4632 77.4272C27.3574 72.8987 26.609 68.4368 26.3482 64.2009Z" fill="#111111"/>
<path d="M72.1409 175.107C61.5276 175.107 50.7795 173.381 40.4588 169.98C25.2351 164.963 11.2946 156.392 0.142621 145.192C0.0440996 145.092 -0.00785673 144.955 0.00096605 144.815C0.00978883 144.675 0.0779203 144.546 0.188695 144.459C2.81592 142.407 16.6143 132.798 23.1956 132.501C17.0529 127.817 10.1731 121.182 8.82865 114.227C0.740609 72.3909 4.57214 36.968 19.341 17.0403C26.6962 7.1161 36.3631 1.46315 48.0719 0.238255C65.8561 -1.62188 83.1282 7.32197 98.0323 26.1003C112.604 44.4605 123.638 70.5215 129.941 101.467C131.43 108.774 126.924 116.988 122.672 122.802C124.021 123.05 125.91 123.365 128.042 123.721C135.697 124.999 146.181 126.749 149.705 128.282C149.831 128.336 149.927 128.441 149.973 128.569C150.018 128.698 150.007 128.84 149.943 128.961C136.726 153.897 114.081 169.919 86.1824 174.076C81.5627 174.765 76.864 175.107 72.1409 175.107ZM1.23174 144.893C23.3142 166.815 55.7546 177.619 86.0383 173.107C113.442 169.023 135.717 153.361 148.821 128.982C144.951 127.537 134.74 125.832 127.88 124.687C125.302 124.257 123.075 123.886 121.718 123.619C121.553 123.587 121.416 123.471 121.355 123.314C121.295 123.156 121.32 122.979 121.421 122.844C127.443 114.817 130.128 107.294 128.982 101.663C122.709 70.868 111.741 44.9496 97.2653 26.71C82.5797 8.20669 65.5998 -0.610202 48.1743 1.21317C36.7488 2.40817 27.3129 7.92976 20.1282 17.624C5.52304 37.3317 1.75474 72.4738 9.79082 114.041C10.8878 119.716 16.4398 126.426 25.4243 132.935C25.6346 133.088 25.6895 133.377 25.5498 133.596C25.4101 133.815 25.1253 133.888 24.8974 133.76C21.1457 131.66 6.87293 140.599 1.23174 144.893ZM74.9147 141.823C67.0242 141.823 56.1982 133.973 48.0876 122.22C47.8636 121.895 47.642 121.568 47.4234 121.238C41.6582 112.56 33.8868 97.8589 29.3642 82.6244C28.8515 80.8956 28.3887 79.186 27.9873 77.5434C26.8266 72.7914 26.1105 68.3124 25.8591 64.2318C25.7919 63.152 25.7821 62.0678 25.8282 61.0096C26.6085 43.0778 43.0091 33.333 54.4052 32.1409C65.7542 30.9552 85.1972 36.9047 92.9166 53.8494C93.3803 54.8679 93.8003 55.9272 94.1645 56.9986C95.509 60.9605 96.5638 65.4033 97.2991 70.2029C97.5554 71.8787 97.777 73.6188 97.9559 75.375C99.5386 90.9139 97.799 106.613 95.6428 116.124C95.5605 116.487 95.4747 116.846 95.3865 117.204C92.0064 130.829 84.0649 140.928 76.0749 141.764C75.6965 141.804 75.3093 141.823 74.9157 141.823L74.9147 141.823ZM57.352 32.9737C56.3579 32.9737 55.407 33.0217 54.5071 33.1158C43.4595 34.2711 27.5619 43.7027 26.807 61.0522C26.7624 62.0761 26.7727 63.1256 26.8374 64.1715C27.0854 68.1942 27.7922 72.6149 28.9397 77.3111C29.3367 78.9384 29.7955 80.6324 30.3038 82.3455C34.7951 97.4761 42.5135 112.077 48.2395 120.696C48.4552 121.021 48.6743 121.344 48.8944 121.663C57.0839 133.53 68.476 141.577 75.9715 140.789C83.439 140.008 91.2035 129.989 94.4341 116.968C94.5219 116.617 94.6057 116.263 94.6861 115.907C96.8251 106.472 98.5509 90.8953 96.98 75.4745C96.803 73.7345 96.5839 72.0106 96.33 70.3509C95.6036 65.6077 94.5625 61.2213 93.2357 57.3133C92.8823 56.2727 92.475 55.2439 92.024 54.2552C85.1182 39.0972 68.5682 32.9737 57.352 32.9737Z" fill="#111111"/>
</g>
<defs>
<clipPath id="clip0_22_6369">
<rect width="150" height="175.11" fill="white"/>
</clipPath>
</defs>
</svg>
