<svg width="150" height="137" viewBox="0 0 150 137" fill="none" xmlns="http://www.w3.org/2000/svg">
<g clip-path="url(#clip0_22_6401)">
<path d="M41.0428 136.956C40.7998 136.956 40.5763 136.804 40.4923 136.567L34.1699 118.755C34.0617 118.45 34.2211 118.116 34.5251 118.008C34.8297 117.899 35.1635 118.059 35.2716 118.363L41.4245 135.699L57.8558 132.393C58.1725 132.33 58.4804 132.535 58.5443 132.851C58.6078 133.168 58.4028 133.476 58.0863 133.54L41.1584 136.945C41.1196 136.953 41.081 136.957 41.0426 136.957L41.0428 136.956Z" fill="#111111"/>
<path d="M132.479 118.563C132.207 118.563 131.963 118.371 131.907 118.094C131.843 117.777 132.048 117.469 132.365 117.405L148.639 114.131L142.542 96.9544C142.434 96.6501 142.594 96.3159 142.898 96.2079C143.202 96.0996 143.536 96.259 143.644 96.5632L149.966 114.376C150.023 114.536 150.008 114.713 149.924 114.86C149.84 115.007 149.697 115.111 149.531 115.145L132.595 118.551C132.556 118.559 132.517 118.563 132.479 118.563Z" fill="#111111"/>
<path d="M115.276 18.9741C115.036 18.9741 114.81 18.8245 114.725 18.585L108.575 1.25755L92.1361 4.56454C91.8191 4.62787 91.5114 4.42326 91.4477 4.10661C91.3842 3.79016 91.5892 3.48189 91.9056 3.41817L108.841 0.0114104C109.127 -0.045489 109.41 0.115077 109.508 0.389051L115.827 18.1939C115.936 18.4983 115.776 18.8325 115.472 18.9404C115.407 18.9634 115.341 18.9743 115.276 18.9743L115.276 18.9741Z" fill="#111111"/>
<path d="M6.9043 40.7745C6.66384 40.7745 6.43838 40.6248 6.35342 40.3853L0.0336889 22.5805C-0.0230157 22.4207 -0.00762166 22.244 0.0759738 22.0966C0.159764 21.9491 0.303182 21.8453 0.469398 21.8118L17.3972 18.4064C17.7156 18.3423 18.0219 18.5478 18.0856 18.8643C18.1491 19.1807 17.9442 19.489 17.6277 19.5527L1.36128 22.825L7.45517 39.9941C7.56332 40.2984 7.40392 40.6326 7.09994 40.7406C7.03524 40.7636 6.96919 40.7745 6.9043 40.7745Z" fill="#111111"/>
<path d="M83.2753 112.988C83.2683 112.988 83.2611 112.987 83.2538 112.986C83.1469 112.975 83.0697 112.878 83.0814 112.771C83.391 109.962 84.5633 94.9852 77.2326 76.0252C77.1939 75.9249 77.2437 75.8121 77.3441 75.7733C77.4441 75.7345 77.5573 75.7844 77.5961 75.8847C84.9595 94.9289 83.7798 109.989 83.4688 112.814C83.4577 112.914 83.3735 112.988 83.2753 112.988Z" fill="#111111"/>
<path d="M95.2227 111.222H95.2182C95.1105 111.219 95.0255 111.13 95.0278 111.023C95.2326 102.33 93.4923 87.9484 87.9939 73.652C85.5593 67.3217 77.9395 63.5745 72.0062 65.7917C69.7604 66.6309 67.9788 68.3056 66.9901 70.5073C65.8593 73.0245 65.8587 76.0193 66.9879 78.9403C72.368 92.8553 72.4243 103.84 71.9789 109.149C71.9701 109.256 71.8805 109.34 71.7684 109.327C71.6613 109.318 71.5816 109.224 71.5907 109.116C72.0333 103.841 71.9764 92.923 66.6245 79.0806C65.4575 76.062 65.4608 72.9604 66.6344 70.3475C67.6664 68.0501 69.5258 66.3024 71.87 65.4265C74.7913 64.3347 78.2791 64.5861 81.4378 66.1157C84.6209 67.6573 87.143 70.353 88.3579 73.5117C93.8766 87.8613 95.6231 102.302 95.4176 111.032C95.415 111.138 95.3283 111.222 95.2227 111.222Z" fill="#111111"/>
<path d="M60.3882 100.488C60.2892 100.488 60.2044 100.413 60.1945 100.313C59.7767 96.0904 58.3626 88.7958 55.646 80.9852C53.7111 75.4221 53.6758 69.9396 55.5437 65.1311C57.408 60.332 60.9831 56.6684 65.8823 54.537C71.0116 52.3057 77.618 52.6122 84.0065 55.3786C90.4471 58.1677 95.6409 63.0425 98.2563 68.7535C102.541 78.1088 104.981 90.4992 106.273 99.2458C106.289 99.3524 106.215 99.4514 106.109 99.4671C106 99.4816 105.903 99.4091 105.887 99.3029C104.599 90.5811 102.168 78.2294 97.9021 68.9156C95.3262 63.2914 90.2051 58.4875 83.8518 55.7362C77.5619 53.0123 71.0689 52.7053 66.0382 54.8944C56.2942 59.1338 52.1723 69.8101 56.0145 80.8573C58.7422 88.6999 60.1627 96.0296 60.5827 100.274C60.5934 100.381 60.515 100.477 60.4081 100.487C60.4016 100.488 60.395 100.488 60.3886 100.488L60.3882 100.488Z" fill="#111111"/>
<path d="M42.7576 70.3849C42.7539 70.3849 42.7504 70.3849 42.7465 70.3845C42.639 70.3787 42.5567 70.2867 42.563 70.1792C43.3389 56.217 50.6735 46.1974 62.6857 42.6899C69.5662 40.6807 77.4499 41.0802 84.8835 43.8144C92.7771 46.7183 99.6253 51.9719 104.688 59.0076C104.751 59.0949 104.731 59.2167 104.644 59.2796C104.556 59.3425 104.435 59.3227 104.372 59.2352C94.459 45.46 77.3618 38.8096 62.7948 43.064C50.9508 46.5224 43.7185 56.4136 42.9519 70.201C42.9462 70.3046 42.8601 70.3849 42.7576 70.3849Z" fill="#111111"/>
<path d="M41.4318 41.8335C41.386 41.8335 41.3398 41.8173 41.3028 41.7845C41.2221 41.7134 41.2145 41.5903 41.2858 41.5096C46.0703 36.0954 53.1264 32.2052 61.1541 30.5555C69.5964 28.8214 78.463 29.6038 86.7954 32.8204C86.8958 32.8589 86.9457 32.9718 86.9069 33.0723C86.8681 33.1727 86.7551 33.2227 86.655 33.1838C70.1956 26.8297 51.6587 30.3593 41.5777 41.7676C41.5393 41.8112 41.4856 41.8335 41.4318 41.8335Z" fill="#111111"/>
<path d="M89.2339 113.006C89.2312 113.006 89.2286 113.006 89.2259 113.006C89.1183 113.002 89.0347 112.911 89.039 112.803C89.413 103.479 88.9659 91.727 82.8148 75.2581C82.2327 73.7 80.7966 72.2494 79.0666 71.4721C77.6069 70.8166 76.1324 70.7143 74.9141 71.1851C71.7753 72.3989 71.7026 75.8064 72.5941 78.3554C77.072 91.1605 78.8213 102.535 77.6527 111.251L77.6235 111.471C77.6096 111.578 77.513 111.652 77.4054 111.64C77.2986 111.626 77.223 111.529 77.2369 111.422L77.2665 111.199C78.4271 102.544 76.6842 91.2316 72.2262 78.4842C70.9768 74.911 71.9766 71.9036 74.7738 70.8219C76.0895 70.3137 77.6708 70.4181 79.2264 71.1169C81.048 71.9351 82.5628 73.4697 83.1799 75.1221C89.3553 91.6557 89.8042 103.456 89.4285 112.819C89.4245 112.924 89.3379 113.006 89.2341 113.006L89.2339 113.006Z" fill="#111111"/>
<path d="M100.989 107.081C100.886 107.081 100.8 107.001 100.794 106.897C100.144 95.8595 97.6137 83.8467 93.6705 73.0714C89.777 62.4313 78.3998 57.5326 70.6241 59.7917C66.6337 60.9507 63.6157 63.3999 61.8963 66.8741C59.9434 70.82 59.883 75.8244 61.7308 80.604C66.3385 92.5211 66.3399 101.954 66.3405 105.505C66.3405 105.613 66.2534 105.7 66.1456 105.7C66.0379 105.7 65.9508 105.613 65.9508 105.505C65.9502 101.974 65.9488 92.594 61.3674 80.7445C59.4802 75.8632 59.5457 70.7448 61.5471 66.7014C63.3162 63.1265 66.4174 60.6079 70.5152 59.4177C74.3485 58.3037 79.2103 58.9376 83.5204 61.1118C88.4145 63.5807 92.149 67.7806 94.0365 72.9376C97.9922 83.7475 100.53 95.7997 101.183 106.874C101.19 106.982 101.108 107.074 101 107.08C100.996 107.08 100.992 107.081 100.989 107.081L100.989 107.081Z" fill="#111111"/>
<path d="M53.2993 92.0143C53.2118 92.0143 53.1321 91.9547 53.1101 91.8658C52.8209 90.6863 52.2013 88.7486 51.5454 86.6969C50.7276 84.1392 49.8819 81.4941 49.445 79.6408C45.78 64.0903 52.7446 51.3328 66.7751 47.895C72.2383 46.5567 78.9078 47.2672 85.074 49.8452C89.9373 51.8784 96.7801 56.0133 101.761 64.1675C105.23 69.8469 107.865 79.574 109.132 84.2489C109.229 84.6076 109.319 84.9393 109.402 85.2404C109.43 85.344 109.369 85.4512 109.265 85.4798C109.163 85.5075 109.054 85.4471 109.026 85.3432C108.943 85.042 108.853 84.7099 108.756 84.3508C107.494 79.6936 104.868 70.0026 101.428 64.3709C92.9512 50.4927 77.2951 45.7188 66.8681 48.274C53.0616 51.6564 46.2124 64.2261 49.8246 79.5518C50.2579 81.3905 51.1391 84.1468 51.9168 86.5789C52.5748 88.6372 53.1962 90.5811 53.4889 91.7735C53.5145 91.8779 53.4505 91.9835 53.3461 92.0092C53.3305 92.0131 53.3149 92.0147 53.2995 92.0147L53.2993 92.0143Z" fill="#111111"/>
<path d="M40.1002 54.9715C40.0722 54.9715 40.0437 54.9654 40.0166 54.9526C39.9196 54.9064 39.8781 54.7901 39.9243 54.6928C44.3346 45.4171 51.7749 39.2027 61.441 36.7216C72.8852 33.7837 86.4105 36.5832 96.7395 44.0263C96.8266 44.0893 96.8465 44.2111 96.7838 44.2984C96.721 44.3853 96.5989 44.4051 96.5117 44.3426C86.2741 36.9651 72.8733 34.1901 61.5381 37.0988C51.9875 39.5504 44.6356 45.6922 40.2766 54.86C40.2431 54.93 40.1733 54.9711 40.1004 54.9711L40.1002 54.9715Z" fill="#111111"/>
<path d="M48.7392 28.7618C48.67 28.7618 48.6028 28.7248 48.5675 28.6595C48.5163 28.5648 48.5518 28.4465 48.6465 28.3957C53.721 25.6588 63.7274 23.2509 71.6904 23.9599C71.7975 23.9694 71.8766 24.0639 71.8671 24.1713C71.8575 24.2783 71.7656 24.3593 71.6557 24.348C63.7661 23.6455 53.8551 26.0289 48.8314 28.7384C48.8022 28.7544 48.7704 28.7618 48.739 28.7618H48.7392Z" fill="#111111"/>
</g>
<defs>
<clipPath id="clip0_22_6401">
<rect width="150" height="136.956" fill="white"/>
</clipPath>
</defs>
</svg>
