<svg width="50" height="53" viewBox="0 0 50 53" fill="none" xmlns="http://www.w3.org/2000/svg">
<path d="M25.5 13C15.794 13 10 18.421 10 27.5V31.0215C8.747 31.9495 8 33.401 8 35C8 37.357 9.63989 39.3383 11.8379 39.8633C13.8329 47.7673 19.026 53 25 53C30.974 53 36.1671 47.7673 38.1621 39.8633C40.3601 39.3383 42 37.357 42 35C42 33.41 41.253 31.9641 40 31.0371V29.5C40 28.048 39.7061 26.7534 39.4141 25.8184C39.9971 25.4944 40.4643 24.9872 40.7383 24.3672C41.0973 23.5542 41.0851 22.631 40.7031 21.832C38.0191 16.22 32.478 13 25.5 13ZM20.4609 24.6445C22.2089 25.6545 25.553 27 31 27C33.128 27 35.0239 26.8162 36.5059 26.5762C36.7379 27.2822 37 28.327 37 29.5V30H13V29.2324C16.17 28.4574 18.3321 26.7545 18.4141 26.6875C19.0661 26.1855 19.6494 25.6302 20.1504 25.0352C20.2614 24.9012 20.365 24.7715 20.459 24.6465L20.4609 24.6445ZM20 33C21.105 33 22 33.895 22 35C22 36.105 21.105 37 20 37C18.895 37 18 36.105 18 35C18 33.895 18.895 33 20 33ZM30 33C31.105 33 32 33.895 32 35C32 36.105 31.105 37 30 37C28.895 37 28 36.105 28 35C28 33.895 28.895 33 30 33ZM12.2969 33.1172C12.9573 33.2511 13.8432 33.5506 14.3418 34.3184L14.6152 34.7383C14.6292 34.7733 14.6432 34.8097 14.6602 34.8438L16.1465 37.8242C16.6755 39.1292 17.9591 40 19.3711 40H21.3672C22.7022 40 23.9372 39.2228 24.5332 37.9668C24.6472 37.7308 24.8528 37.6934 24.9668 37.6934C25.1108 37.7334 25.2913 37.7307 25.4023 37.9727C25.9663 39.2047 27.2085 40 28.5645 40H30.6289C32.0409 40 33.3245 39.1302 33.8535 37.8242L35.3398 34.8418C35.3558 34.8088 35.3708 34.7723 35.3848 34.7363L35.6582 34.3164C36.153 33.5551 37.0301 33.2567 37.6875 33.1211C37.744 33.158 37.7934 33.203 37.8555 33.2324C38.5615 33.5674 39 34.245 39 35C39 36.083 38.1346 36.968 37.0586 36.998C37.0166 36.995 36.9745 36.9941 36.9395 36.9941C36.2305 36.9941 35.6167 37.4905 35.4707 38.1855C34.0117 45.1415 29.706 50 25 50C20.294 50 15.9883 45.1425 14.5293 38.1875C14.3833 37.4925 13.7695 36.9941 13.0605 36.9941C13.0265 36.9941 12.9854 36.997 12.9434 37C11.8664 36.969 11 36.084 11 35C11 34.235 11.4366 33.5527 12.1426 33.2188C12.1993 33.1919 12.2448 33.1504 12.2969 33.1172Z" fill="black"/>
<path d="M25 0C24.8477 0 24.7031 0.023438 24.5625 0.09375L0.5625 12.0938C0.222656 12.2656 0 12.6211 0 13C0 13.3789 0.222656 13.7344 0.5625 13.9062L4 15.625V30.1875C2.84375 30.6055 2 31.6992 2 33C2 34.2734 3.53125 36.6133 4.1875 37.5625L5 38.75L5.8125 37.5625C6.46875 36.6133 8 34.2734 8 33C8 31.6992 7.15625 30.6055 6 30.1875V16.625L8 17.625V15C8 11.5312 12.9922 10.8281 15.125 10.5312C18.3398 10.0859 22.2695 10 25 10C27.7305 10 31.6602 10.0859 34.875 10.5312C37.0078 10.8281 42 11.5312 42 15V17.625L49.4375 13.9062C49.7773 13.7383 50 13.3789 50 13C50 12.6211 49.7773 12.2656 49.4375 12.0938L25.4375 0.09375C25.2969 0.023438 25.1523 0 25 0ZM25 12C19.3984 12 10 12.3906 10 15V19.6562C12.0781 18.7695 16.3203 18 25 18C33.6797 18 37.9219 18.7695 40 19.6562V15C40 12.3906 30.6016 12 25 12Z" fill="black"/>
</svg>
